<svg height="3189.917487" viewBox="0 0 3066.74056066 3189.91748675" width="3066.740561" xmlns="http://www.w3.org/2000/svg"><path clip-rule="evenodd" d="m50.459 95.503c-2.519 0-4.975-.259-7.383-.655l2.064-5.143c1.744.236 3.511.399 5.319.399 2.501 0 4.94-.261 7.313-.703l-5.998-6.497h-8.514-1.8-1.8v-5.398h-5.899c-.623 1.07-1.771 1.8-3.099 1.8-1.988 0-3.601-1.612-3.601-3.601s1.612-3.6 3.601-3.6c1.329 0 2.477.728 3.099 1.8h5.899v-1.8-3.601h3.6 18v.77l4.416 4.784c.315-.09.641-.153.983-.153 1.988 0 3.6 1.612 3.6 3.601 0 1.987-1.611 3.598-3.6 3.598s-3.599-1.61-3.599-3.598c0-.296.044-.579.11-.854l-4.197-4.547h-15.712v7.2h10.799v.768l7.725 8.366c6.576-1.96 12.414-5.601 17.071-10.395l-5.483-5.939h-1.313v-17.024l-5.435-5.883c-1.503 1.309-3.101 2.702-4.651 4.053-.299.263-.893.779-.893.779l-1.621.024v.051h-7.699c-.623 1.072-1.771 1.801-3.1 1.801-1.988 0-3.6-1.612-3.6-3.601s1.612-3.599 3.6-3.599c1.329 0 2.477.728 3.1 1.8h7.699v.393l10.799-9.623v-14.169h-7.198v7.7c1.07.623 1.798 1.771 1.798 3.099 0 1.988-1.61 3.601-3.599 3.601-1.987 0-3.6-1.612-3.6-3.601 0-1.329.728-2.477 1.8-3.099v-7.7-1.8-1.8h10.799v-7.183c-1.426-.825-2.89-1.593-4.421-2.238-.573.264-1.206.422-1.879.422-2.484 0-4.499-2.015-4.499-4.5 0-2.484 2.015-4.499 4.499-4.499 2.243 0 4.087 1.644 4.428 3.788 15.918 6.93 27.07 22.741 27.07 41.209 0 24.851-20.145 44.997-44.998 44.997zm30.599-43.197c-1.988 0-3.599-1.61-3.599-3.599 0-1.329.729-2.477 1.799-3.101v-14.898h1.8 1.801 1.87c-2.753-4.731-6.471-8.829-10.869-12.054v26.453h-2.542c-.584.508-1.25 1.09-1.978 1.723l6.525 7.069-.271.207h.064v5.4h2.3c.622-1.072 1.77-1.8 3.099-1.8 1.988 0 3.601 1.612 3.601 3.601 0 1.987-1.612 3.6-3.601 3.6-1.329 0-2.477-.729-3.099-1.8h-2.3v6.168l5.598 6.063c5.489-6.791 8.802-15.415 8.802-24.831 0-5.783-1.266-11.257-3.498-16.199h-3.702v11.298c1.072.625 1.8 1.772 1.8 3.101 0 1.988-1.612 3.599-3.6 3.599zm-30.599-41.398c-1.214 0-2.412.076-3.598.183v11.386l4.416 4.784c.314-.09.64-.153.982-.153 1.988 0 3.601 1.612 3.601 3.601 0 1.988-1.612 3.6-3.601 3.6s-3.599-1.612-3.599-3.6c0-.295.044-.579.111-.853l-2.535-2.748h-1.918l-6.35 5.536 4.86 5.263h.431v.468l.018.02-.018.016v22.897h18.501c.622-1.073 1.77-1.801 3.099-1.801 1.988 0 3.601 1.612 3.601 3.601s-1.612 3.599-3.601 3.599c-1.329 0-2.477-.729-3.099-1.799h-18.499-1.8-1.8v-25.126l-16.509-17.883c-1 .953-1.942 1.963-2.839 3.015l15.317 16.593h.431v.467l.018.02-.018.016v21.097 3.599h-3.599-9-1.798-1.8v-8.999h-8.327c2.744 14.895 13.823 26.857 28.229 30.896l-2.025 5.049c-18.653-5.494-32.277-22.716-32.277-43.145 0-24.852 20.146-44.997 44.996-44.997 2.447 0 4.831.248 7.172.624l-2.062 5.142c-1.677-.216-3.374-.368-5.111-.368zm-32.391 16.882c-4.534 6.425-7.206 14.251-7.206 22.717 0 1.214.063 2.412.171 3.599h12.428v1.801 1.8 5.4h9v-19.725l-5.627-6.095-5.231 7.245c.031.188.06.378.06.575 0 1.988-1.612 3.6-3.6 3.6s-3.6-1.612-3.6-3.6 1.612-3.6 3.6-3.6c.401 0 .779.081 1.139.202l5.142-7.12zm25.193-16.196c-6.497 1.195-12.418 3.998-17.389 7.942l9.656 10.461 7.733-6.742z" fill-rule="evenodd" transform="matrix(19.25701991796 0 0 19.25701991796 559.49083835322 121.81407270033)" xmlns="http://www.w3.org/2000/svg"/></svg>