<svg height="3189.917487" viewBox="0 0 3066.74056066 3189.91748675" width="3066.740561" xmlns="http://www.w3.org/2000/svg"><path d="m7.4 9.44c1.94 0 3.92 1.3 3.92 4.6v5.96h-3.16v-5.74c0-1.58-.54-2.08-1.54-2.08-1.42 0-2.24 1.38-2.44 1.98v5.84h-3.16v-14.14h3.16v5.54c.2-.5 1.26-1.96 3.22-1.96zm13.32.16h3.16v10.4h-3.16v-1.04c-.14.36-1.08 1.24-2.68 1.24-2.38 0-5.12-1.7-5.12-5.42 0-3.58 2.74-5.36 5.12-5.36 1.6 0 2.54.92 2.68 1.14zm-2.22 7.82c1.3 0 2.36-.9 2.36-2.64 0-1.68-1.06-2.58-2.36-2.58-1.36 0-2.52.92-2.52 2.58 0 1.72 1.16 2.64 2.52 2.64zm14.1-7.98c.28 0 .56 0 .82.06v3.02c-.24-.06-.52-.06-.72-.06-1.92 0-3.46 1.38-3.62 3.3v4.24h-3.16v-10.4h3.16v2.54c.48-1.56 1.68-2.7 3.52-2.7zm7.7 7.92c.56 0 .96-.08 1.4-.2v2.62c-.44.2-1.16.34-2.22.34-1.74 0-3.2-.58-3.2-3.78v-4.14h-1.46v-2.6h1.46v-2.44h3.16v2.44h2.22v2.6h-2.22v4.14c0 .46.12 1.02.86 1.02zm6.88 2.8c-1.94 0-3.92-1.3-3.92-4.6v-5.96h3.16v5.74c0 1.58.54 2.08 1.54 2.08 1.42 0 2.24-1.38 2.44-1.98v-5.84h3.16v10.4h-3.16v-1.8c-.2.5-1.26 1.96-3.22 1.96zm14.26-10.74c2.38 0 5.12 1.78 5.12 5.36 0 3.72-2.74 5.42-5.12 5.42-1.6 0-2.54-.88-2.68-1.24v4.84h-3.16v-6.02-8.18h3.16v.96c.14-.22 1.08-1.14 2.68-1.14zm-.46 8c1.36 0 2.52-.92 2.52-2.64 0-1.66-1.16-2.58-2.52-2.58-1.3 0-2.36.9-2.36 2.58 0 1.74 1.06 2.64 2.36 2.64z" transform="matrix(43.8941567686 0 0 43.8941567686 50.18671154545 2050.27772114252)"/></svg>